<svg xmlns="http://www.w3.org/2000/svg" width="1026" height="1024" viewBox="0 0 1026 1024" version="1.1"><path d="M 494.500 112.893 C 491.200 113.856, 485.782 116.033, 482.460 117.730 C 479.138 119.428, 474.056 122.942, 471.167 125.540 C 468.277 128.138, 463.858 133.144, 461.346 136.664 C 458.834 140.183, 455.402 146.312, 453.718 150.282 C 451.091 156.477, 450.594 159.062, 450.212 168.519 C 449.882 176.677, 450.192 181.201, 451.407 185.942 C 452.309 189.464, 454.422 195.050, 456.102 198.357 C 457.782 201.663, 461.240 207.019, 463.785 210.259 C 466.330 213.499, 471.357 218.364, 474.956 221.070 C 478.555 223.776, 484.538 227.189, 488.250 228.653 C 495 231.316, 495 231.316, 495 372.994 C 495 514.672, 495 514.672, 488.750 516.408 C 485.313 517.362, 478.900 519.850, 474.500 521.936 C 469.619 524.249, 463.656 528.221, 459.206 532.122 C 455.194 535.639, 449.408 541.437, 446.349 545.008 C 443.290 548.579, 438.834 555.468, 436.446 560.319 C 434.059 565.169, 431.397 572.369, 430.531 576.319 C 429.665 580.268, 428.629 588.865, 428.228 595.422 C 427.500 607.344, 427.500 607.344, 400.500 616.776 C 385.650 621.964, 337.725 638.582, 294 653.706 C 250.275 668.829, 213.787 681.415, 212.915 681.675 C 211.902 681.977, 208.297 679.148, 202.911 673.823 C 197.266 668.244, 192.148 664.270, 187.382 661.767 C 183.472 659.714, 177.174 657.304, 173.387 656.412 C 168.353 655.226, 163.675 654.924, 156 655.290 C 148.312 655.656, 143.727 656.442, 138.880 658.224 C 135.240 659.562, 130.256 661.832, 127.806 663.268 C 125.356 664.703, 121.040 667.957, 118.214 670.498 C 115.388 673.039, 111.062 678.146, 108.602 681.847 C 106.141 685.548, 102.915 692.159, 101.432 696.538 C 99.596 701.963, 98.589 707.368, 98.273 713.500 C 97.964 719.510, 98.330 724.946, 99.375 729.865 C 100.236 733.916, 102.631 740.666, 104.698 744.865 C 107.472 750.501, 110.557 754.621, 116.478 760.599 C 122.124 766.299, 126.425 769.633, 131 771.856 C 134.575 773.593, 140.875 775.731, 145 776.607 C 150.216 777.714, 155.240 778.035, 161.500 777.663 C 166.605 777.358, 173.313 776.198, 177 774.981 C 180.575 773.801, 186.356 771.252, 189.846 769.315 C 193.337 767.379, 198.992 763.028, 202.412 759.647 C 205.833 756.266, 210.032 751.025, 211.742 748 C 213.453 744.975, 215.972 739.125, 217.340 735 C 218.708 730.875, 220.142 723.589, 220.527 718.808 C 221.220 710.205, 221.259 710.105, 224.363 709 C 226.089 708.386, 261.250 696.258, 302.500 682.048 C 343.750 667.838, 390.746 651.664, 406.936 646.106 C 423.126 640.548, 436.675 636, 437.045 636 C 437.414 636, 439.312 638.402, 441.261 641.337 C 443.210 644.273, 447.404 649.483, 450.582 652.915 C 453.759 656.347, 459.163 661.156, 462.589 663.601 C 466.016 666.046, 472.123 669.570, 476.160 671.432 C 480.197 673.294, 486.200 675.540, 489.500 676.424 C 492.800 677.307, 499.859 678.315, 505.188 678.662 C 511.212 679.055, 517.829 678.825, 522.688 678.053 C 526.984 677.370, 534.341 675.377, 539.035 673.625 C 543.729 671.873, 550.812 668.284, 554.775 665.650 C 558.738 663.015, 564.709 658.131, 568.044 654.796 C 571.378 651.462, 575.880 646.121, 578.048 642.929 C 580.216 639.736, 582.390 636.877, 582.879 636.575 C 583.368 636.273, 630.282 651.821, 687.134 671.127 C 743.985 690.433, 791.905 706.685, 793.622 707.243 C 796.745 708.257, 796.745 708.257, 797.435 717.659 C 797.815 722.829, 798.785 729.593, 799.591 732.688 C 800.397 735.783, 802.728 741.497, 804.772 745.385 C 807.116 749.845, 811.081 755.048, 815.516 759.484 C 819.952 763.919, 825.155 767.884, 829.615 770.228 C 833.503 772.272, 839.343 774.662, 842.592 775.540 C 846.283 776.538, 852.441 777.128, 859 777.113 C 865.306 777.098, 871.897 776.456, 875.500 775.506 C 878.800 774.635, 884.200 772.658, 887.500 771.113 C 890.800 769.567, 895.827 766.451, 898.672 764.189 C 901.517 761.927, 905.971 757.096, 908.571 753.453 C 911.421 749.458, 914.463 743.447, 916.235 738.306 C 918.313 732.276, 919.323 727.106, 919.686 720.641 C 920.039 714.353, 919.706 709.159, 918.618 704 C 917.749 699.875, 915.165 692.701, 912.875 688.058 C 909.762 681.743, 906.922 677.832, 901.606 672.535 C 896.596 667.542, 892.288 664.367, 887 661.769 C 882.875 659.743, 876.575 657.397, 873 656.557 C 869.425 655.717, 862.900 655.030, 858.500 655.030 C 854.100 655.030, 847.621 655.708, 844.103 656.537 C 840.585 657.367, 834.656 659.648, 830.929 661.607 C 827.202 663.565, 820.560 668.505, 816.169 672.584 C 811.779 676.663, 807.863 680, 807.467 680 C 807.071 680, 758.766 663.716, 700.123 643.813 C 641.481 623.910, 593.320 607.492, 593.100 607.329 C 592.880 607.166, 592.349 601.063, 591.921 593.766 C 591.398 584.867, 590.427 578.196, 588.970 573.500 C 587.775 569.650, 584.818 562.675, 582.399 558 C 579.980 553.325, 575.638 546.742, 572.750 543.372 C 569.863 540.002, 565.177 535.277, 562.338 532.872 C 559.498 530.467, 554.627 526.962, 551.514 525.083 C 548.400 523.204, 541.723 520.143, 536.676 518.282 C 531.629 516.420, 526.938 514.709, 526.250 514.480 C 525.258 514.149, 525 484.899, 525 372.690 C 525 231.317, 525 231.317, 529.250 230.062 C 531.587 229.372, 536.193 227.388, 539.484 225.654 C 542.775 223.919, 548.498 219.647, 552.201 216.160 C 555.905 212.672, 560.680 207.047, 562.812 203.660 C 564.945 200.272, 567.721 194.800, 568.981 191.500 C 570.653 187.120, 571.397 182.665, 571.735 175 C 572.069 167.435, 571.747 162.575, 570.582 157.613 C 569.693 153.826, 567.295 147.526, 565.253 143.613 C 562.806 138.925, 558.977 133.936, 554.020 128.980 C 549.068 124.027, 544.075 120.194, 539.397 117.752 C 535.490 115.713, 529.415 113.367, 525.897 112.537 C 522.379 111.708, 515.225 111.055, 510 111.086 C 504.060 111.121, 498.251 111.799, 494.500 112.893 M 501.056 548.090 C 498.612 548.570, 493.437 550.483, 489.556 552.342 C 485.675 554.201, 480.403 557.587, 477.841 559.866 C 475.279 562.145, 471.799 566.098, 470.109 568.650 C 468.418 571.202, 466.140 575.683, 465.045 578.608 C 463.951 581.533, 462.606 586.720, 462.056 590.135 C 461.398 594.220, 461.390 598.763, 462.033 603.422 C 462.657 607.948, 464.301 613.137, 466.591 617.815 C 468.771 622.266, 472.246 627.202, 475.466 630.423 C 478.377 633.333, 483.175 637.087, 486.129 638.764 C 489.083 640.441, 493.944 642.530, 496.932 643.407 C 499.919 644.283, 505.409 645, 509.132 645 C 512.855 645, 518.286 644.494, 521.201 643.875 C 524.115 643.256, 529.126 641.430, 532.336 639.817 C 535.658 638.148, 540.847 634.170, 544.378 630.586 C 548.084 626.825, 551.864 621.688, 553.763 617.830 C 555.512 614.277, 557.492 608.171, 558.162 604.260 C 559.117 598.693, 559.120 595.466, 558.177 589.401 C 557.440 584.661, 555.634 578.870, 553.524 574.483 C 550.978 569.189, 548.286 565.625, 543.233 560.859 C 539.470 557.309, 534.196 553.372, 531.515 552.112 C 528.833 550.851, 523.683 549.193, 520.069 548.427 C 516.456 547.661, 511.700 547.076, 509.500 547.127 C 507.300 547.178, 503.500 547.611, 501.056 548.090 M 146.500 688.332 C 143.750 689.670, 139.609 692.731, 137.298 695.133 C 134.987 697.535, 132.210 701.525, 131.127 704 C 130.044 706.475, 128.861 710.114, 128.498 712.087 C 128.135 714.060, 128.313 718.243, 128.894 721.382 C 129.474 724.521, 130.719 728.713, 131.661 730.698 C 132.603 732.683, 134.879 735.813, 136.720 737.653 C 138.561 739.494, 142.414 742.235, 145.283 743.743 C 149.809 746.123, 151.626 746.481, 159 746.450 C 165.452 746.423, 168.622 745.906, 172.156 744.305 C 174.717 743.145, 178.627 740.326, 180.845 738.040 C 183.062 735.755, 185.891 731.790, 187.131 729.229 C 188.890 725.596, 189.390 722.804, 189.404 716.536 C 189.418 710.542, 188.902 707.355, 187.375 703.992 C 186.248 701.513, 183.258 697.416, 180.730 694.888 C 178.202 692.360, 174.416 689.467, 172.317 688.459 C 169.831 687.266, 165.536 686.500, 160 686.263 C 152.587 685.945, 150.860 686.210, 146.500 688.332 M 845.491 688.783 C 842.186 690.380, 837.958 693.422, 836.097 695.543 C 834.235 697.663, 831.768 701.446, 830.615 703.949 C 829.008 707.439, 828.520 710.481, 828.522 717 C 828.524 723.961, 828.943 726.290, 830.840 729.863 C 832.114 732.263, 835.124 736.139, 837.528 738.476 C 839.933 740.813, 843.453 743.462, 845.351 744.362 C 847.789 745.519, 851.547 745.997, 858.151 745.990 C 865.836 745.982, 868.390 745.565, 872.500 743.647 C 875.250 742.364, 879.162 739.470, 881.193 737.217 C 883.225 734.963, 885.660 731.630, 886.605 729.810 C 887.550 727.989, 888.532 723.274, 888.788 719.330 C 889.043 715.387, 888.956 710.578, 888.593 708.644 C 888.230 706.710, 886.156 702.466, 883.983 699.212 C 880.863 694.540, 878.714 692.593, 873.766 689.956 C 868.487 687.142, 866.239 686.558, 859.500 686.247 C 852.300 685.915, 850.899 686.169, 845.491 688.783" stroke="none" fill="#2ee4bb" fill-rule="evenodd"/><path d="M 457.724 249.285 C 456.390 251.603, 451.214 261.150, 446.222 270.500 C 441.230 279.850, 430.134 301, 421.564 317.500 C 412.994 334, 390.906 377.508, 372.479 414.185 C 338.977 480.871, 338.977 480.871, 335.211 478.685 C 333.139 477.483, 313.096 465.475, 290.671 452 C 251.903 428.706, 249.927 427.377, 250.513 425 C 250.852 423.625, 251.382 418.270, 251.690 413.101 C 252.038 407.274, 251.787 401.573, 251.029 398.101 C 250.356 395.020, 248.477 389.766, 246.851 386.424 C 245.226 383.082, 241.903 378.068, 239.466 375.283 C 237.029 372.497, 232.484 368.525, 229.366 366.455 C 226.247 364.384, 220.372 361.635, 216.310 360.345 C 211.028 358.668, 206.564 358, 200.643 358 C 195.942 358, 190.015 358.697, 186.932 359.612 C 183.944 360.498, 179.475 362.252, 177 363.511 C 174.525 364.769, 170.813 367.144, 168.751 368.789 C 166.689 370.434, 163.209 373.949, 161.018 376.601 C 158.827 379.252, 155.854 383.914, 154.412 386.961 C 152.969 390.007, 151.118 395.650, 150.298 399.500 C 149.343 403.987, 149.010 409.013, 149.371 413.500 C 149.681 417.350, 150.793 422.997, 151.844 426.048 C 152.894 429.100, 154.775 433.600, 156.024 436.048 C 157.273 438.497, 161.266 443.433, 164.897 447.018 C 168.713 450.785, 173.896 454.687, 177.175 456.262 C 180.296 457.762, 185.696 459.659, 189.175 460.479 C 192.654 461.299, 197.750 461.970, 200.500 461.970 C 203.250 461.970, 208.346 461.300, 211.824 460.480 C 215.302 459.660, 220.494 457.879, 223.361 456.522 C 226.228 455.166, 230.477 452.428, 232.802 450.438 C 237.029 446.819, 237.029 446.819, 240.264 448.754 C 242.044 449.817, 262.400 462.078, 285.500 475.999 C 308.600 489.920, 327.853 501.616, 328.285 501.990 C 328.717 502.364, 321.569 517.707, 312.403 536.085 C 303.236 554.463, 288.367 584.535, 279.361 602.910 C 270.355 621.286, 263.163 636.497, 263.378 636.712 C 263.593 636.927, 273.834 633.522, 286.135 629.146 C 298.436 624.770, 321.775 616.410, 338 610.567 C 354.225 604.724, 368.677 599.477, 370.115 598.906 C 372.180 598.087, 373.948 595.204, 378.528 585.185 C 381.718 578.208, 386.224 568.450, 388.541 563.500 C 390.859 558.550, 402.988 532.450, 415.494 505.500 C 428.001 478.550, 442.503 447.275, 447.722 436 C 452.940 424.725, 459.638 410.297, 462.605 403.939 C 468 392.377, 468 392.377, 468 321.322 C 468 250.266, 468 250.266, 464.074 247.668 C 460.149 245.070, 460.149 245.070, 457.724 249.285 M 557.250 247.675 C 553 250.150, 553 250.150, 553 319.952 C 553 389.754, 553 389.754, 559.371 403.627 C 562.876 411.257, 572.831 432.800, 581.494 451.500 C 590.158 470.200, 603.223 498.550, 610.528 514.500 C 617.833 530.450, 628.957 554.750, 635.248 568.500 C 641.539 582.250, 646.882 594.101, 647.121 594.835 C 647.361 595.569, 658.569 600.126, 672.028 604.961 C 685.488 609.796, 709.467 618.533, 725.315 624.376 C 741.164 630.219, 754.537 635, 755.034 635 C 755.531 635, 755.646 634.212, 755.290 633.250 C 754.935 632.288, 740.791 603.219, 723.859 568.654 C 706.927 534.089, 692.812 504.982, 692.491 503.971 C 692.008 502.450, 695.500 499.986, 712.760 489.667 C 724.228 482.811, 743.487 471.239, 755.556 463.954 C 767.625 456.668, 778.748 449.835, 780.272 448.769 C 783.045 446.832, 783.045 446.832, 786.720 450.059 C 788.742 451.834, 793.582 454.799, 797.475 456.648 C 801.979 458.787, 807.497 460.439, 812.643 461.189 C 819.044 462.122, 822.242 462.098, 827.968 461.075 C 832.240 460.312, 838.396 458.184, 842.996 455.882 C 848.687 453.033, 852.414 450.243, 856.825 445.528 C 860.228 441.891, 864.156 436.330, 865.826 432.787 C 867.456 429.329, 869.287 424.115, 869.895 421.201 C 870.503 418.286, 870.995 412.661, 870.988 408.701 C 870.982 404.740, 870.333 399.084, 869.547 396.131 C 868.761 393.179, 866.918 388.390, 865.451 385.490 C 863.984 382.590, 860.707 377.844, 858.169 374.943 C 855.632 372.042, 850.875 367.937, 847.600 365.820 C 844.324 363.703, 838.687 361.042, 835.072 359.908 C 830.865 358.588, 825.621 357.822, 820.499 357.780 C 815.692 357.740, 810.102 358.405, 806.499 359.445 C 803.199 360.398, 797.814 362.600, 794.530 364.339 C 791.247 366.077, 786.163 369.934, 783.232 372.909 C 779.753 376.440, 776.562 381.128, 774.042 386.409 C 771.918 390.859, 769.690 396.885, 769.090 399.799 C 768.491 402.714, 768.007 407.439, 768.016 410.299 C 768.024 413.160, 768.670 418.200, 769.450 421.500 C 770.231 424.800, 770.561 427.779, 770.185 428.121 C 769.808 428.462, 756 436.735, 739.500 446.504 C 723 456.273, 703.233 468.027, 695.574 472.624 C 687.915 477.221, 681.548 480.874, 681.424 480.741 C 681.300 480.608, 654.852 427.513, 622.650 362.750 C 588.140 293.343, 563.568 245.041, 562.801 245.100 C 562.086 245.155, 559.587 246.314, 557.250 247.675 M 335 697.784 C 326.475 700.743, 303.272 708.785, 283.437 715.653 C 247.374 728.141, 247.374 728.141, 245.599 735.821 C 244.623 740.044, 242.477 746.749, 240.831 750.720 C 239.185 754.691, 236.028 760.741, 233.815 764.165 C 231.602 767.589, 227.026 773.279, 223.646 776.809 C 220.266 780.340, 214.730 785.211, 211.344 787.635 C 207.957 790.059, 201.396 793.818, 196.764 795.989 C 192.131 798.161, 185.720 800.619, 182.519 801.453 C 179.317 802.287, 176.563 803.104, 176.399 803.268 C 176.235 803.431, 166.697 823.801, 155.202 848.533 C 143.708 873.265, 133.393 895.300, 132.280 897.500 C 131.167 899.700, 129.943 902.516, 129.559 903.757 C 128.861 906.015, 128.861 906.015, 193.052 905.757 C 257.244 905.500, 257.244 905.500, 273.197 869.500 C 281.972 849.700, 295.823 818.425, 303.977 800 C 312.132 781.575, 324.957 752.566, 332.479 735.536 C 340.001 718.506, 347.271 701.920, 348.636 698.678 C 350 695.436, 350.978 692.698, 350.808 692.593 C 350.639 692.488, 343.525 694.824, 335 697.784 M 669.544 694.138 C 669.917 695.314, 678.640 715.676, 688.927 739.388 C 699.215 763.099, 719.753 810.279, 734.566 844.230 C 761.500 905.961, 761.500 905.961, 825.750 905.980 C 861.087 905.991, 890 905.812, 890 905.581 C 890 905.351, 887.128 898.939, 883.617 891.331 C 880.106 883.724, 869.694 861.075, 860.479 841 C 851.264 820.925, 843.421 804.157, 843.051 803.739 C 842.680 803.320, 839.030 802.054, 834.939 800.926 C 830.847 799.798, 824.252 797.318, 820.282 795.416 C 816.313 793.513, 809.563 789.310, 805.282 786.077 C 801.002 782.843, 795.254 777.470, 792.510 774.135 C 789.765 770.801, 785.831 765.281, 783.767 761.868 C 781.704 758.455, 778.672 752.179, 777.030 747.920 C 775.387 743.662, 773.483 737.222, 772.798 733.609 C 771.551 727.039, 771.551 727.039, 764.526 724.542 C 760.662 723.169, 737.887 715.285, 713.916 707.023 C 689.945 698.760, 670.002 692, 669.599 692 C 669.195 692, 669.171 692.962, 669.544 694.138" stroke="none" fill="#254cff" fill-rule="evenodd"/></svg>